<svg xmlns="http://www.w3.org/2000/svg" viewBox="0 0 200 260"><defs><linearGradient id="bodyG-r0" x1="0" y1="0" x2="1" y2="1"><stop offset="0" stop-color="#59d486"></stop><stop offset="0.45" stop-color="#22c55e"></stop><stop offset="1" stop-color="#147638"></stop></linearGradient><linearGradient id="flapG-r0" x1="0" y1="0" x2="0" y2="1"><stop offset="0" stop-color="#72da98"></stop><stop offset="1" stop-color="#2dc866"></stop></linearGradient><linearGradient id="pockG-r0" x1="0" y1="0" x2="0" y2="1"><stop offset="0" stop-color="rgba(0,0,0,0.45)"></stop><stop offset="1" stop-color="rgba(0,0,0,0.15)"></stop></linearGradient></defs><g><ellipse cx="100" cy="230" rx="50" ry="4" fill="rgba(0,0,0,0.45)"></ellipse><rect x="57" y="200" width="14" height="22" rx="3" fill="#147638"></rect><rect x="129" y="200" width="14" height="22" rx="3" fill="#147638"></rect><rect x="58" y="202" width="3" height="16" rx="1.5" fill="#59d486" opacity="0.4"></rect><rect x="130" y="202" width="3" height="16" rx="1.5" fill="#59d486" opacity="0.4"></rect><g><ellipse cx="64" cy="226" rx="14" ry="5" fill="#0a0e17"></ellipse><ellipse cx="64" cy="225" rx="14" ry="3" fill="#1a2030"></ellipse><ellipse cx="61" cy="224" rx="6" ry="1.5" fill="rgba(255,255,255,0.25)"></ellipse><line x1="56" y1="223" x2="72" y2="223" stroke="#22c55e" stroke-width="1.5"></line></g><g><ellipse cx="136" cy="226" rx="14" ry="5" fill="#0a0e17"></ellipse><ellipse cx="136" cy="225" rx="14" ry="3" fill="#1a2030"></ellipse><ellipse cx="133" cy="224" rx="6" ry="1.5" fill="rgba(255,255,255,0.25)"></ellipse><line x1="128" y1="223" x2="144" y2="223" stroke="#22c55e" stroke-width="1.5"></line></g><ellipse cx="70" cy="60" rx="11" ry="13" fill="none" stroke="#147638" stroke-width="6" stroke-linecap="round"></ellipse><ellipse cx="130" cy="60" rx="11" ry="13" fill="none" stroke="#147638" stroke-width="6" stroke-linecap="round"></ellipse><ellipse cx="68" cy="58" rx="12" ry="14" fill="none" stroke="#59d486" stroke-width="1.5" stroke-linecap="round" opacity="0.5" stroke-dasharray="3 30"></ellipse><ellipse cx="128" cy="58" rx="12" ry="14" fill="none" stroke="#59d486" stroke-width="1.5" stroke-linecap="round" opacity="0.5" stroke-dasharray="3 30"></ellipse><path d="M 42 70 Q 42 55 58 55 L 142 55 Q 158 55 158 70 L 158 200 Q 158 214 144 214 L 56 214 Q 42 214 42 200 Z" fill="url(#bodyG-r0)"></path><path d="M 158 75 L 158 195" stroke="rgba(255,255,255,0.18)" stroke-width="1.5"></path><line x1="54" y1="110" x2="54" y2="200" stroke="#147638" stroke-width="2" opacity="0.45"></line><line x1="146" y1="110" x2="146" y2="200" stroke="#147638" stroke-width="2" opacity="0.45"></line><path d="M 42 70 Q 42 55 58 55 L 142 55 Q 158 55 158 70 L 158 100 Q 158 108 148 108 L 52 108 Q 42 108 42 100 Z" fill="url(#flapG-r0)"></path><ellipse cx="82" cy="65" rx="22" ry="6" fill="rgba(255,255,255,0.25)"></ellipse><g><rect x="92" y="92" width="16" height="10" rx="2" fill="#147638"></rect><rect x="92" y="92" width="16" height="3" rx="1" fill="rgba(255,255,255,0.3)"></rect><rect x="95" y="95" width="10" height="4" rx="1" fill="#2dc866" opacity="0.5"></rect></g><rect x="60" y="128" width="80" height="38" rx="6" fill="url(#pockG-r0)" opacity="0.7"></rect><line x1="66" y1="134" x2="134" y2="134" stroke="#147638" stroke-width="1.5" opacity="0.5"></line><circle cx="134" cy="134" r="2" fill="#22c55e"></circle><g stroke="#0a0e17" stroke-width="3.5" stroke-linecap="round" fill="none"><line x1="78" y1="128" x2="88" y2="128"></line><line x1="112" y1="128" x2="122" y2="128"></line></g><line x1="95" y1="148" x2="105" y2="148" stroke="#0a0e17" stroke-width="2.5" stroke-linecap="round"></line><g><path d="M 42 145 Q 29 156 32 167" stroke="#147638" stroke-width="10" fill="none" stroke-linecap="round"></path><path d="M 42 145 Q 29 156 32 167" stroke="#22c55e" stroke-width="7" fill="none" stroke-linecap="round"></path><path d="M 42 145 Q 29 156 32 167" stroke="#59d486" stroke-width="2" fill="none" stroke-linecap="round" opacity="0.5"></path><circle cx="32" cy="167" r="6.5" fill="#147638"></circle><circle cx="30.5" cy="165.5" r="2" fill="rgba(255,255,255,0.3)"></circle></g><g><path d="M 158 145 Q 171 156 168 167" stroke="#147638" stroke-width="10" fill="none" stroke-linecap="round"></path><path d="M 158 145 Q 171 156 168 167" stroke="#22c55e" stroke-width="7" fill="none" stroke-linecap="round"></path><path d="M 158 145 Q 171 156 168 167" stroke="#59d486" stroke-width="2" fill="none" stroke-linecap="round" opacity="0.5"></path><circle cx="168" cy="167" r="6.5" fill="#147638"></circle><circle cx="166.5" cy="165.5" r="2" fill="rgba(255,255,255,0.3)"></circle></g></g></svg>