<svg xmlns="http://www.w3.org/2000/svg" viewBox="0 0 200 260"><defs><linearGradient id="bodyG-r1" x1="0" y1="0" x2="1" y2="1"><stop offset="0" stop-color="#f8bb54"></stop><stop offset="0.45" stop-color="#f59e0b"></stop><stop offset="1" stop-color="#875706"></stop></linearGradient><linearGradient id="flapG-r1" x1="0" y1="0" x2="0" y2="1"><stop offset="0" stop-color="#f9c56e"></stop><stop offset="1" stop-color="#f6a61f"></stop></linearGradient><linearGradient id="pockG-r1" x1="0" y1="0" x2="0" y2="1"><stop offset="0" stop-color="rgba(0,0,0,0.45)"></stop><stop offset="1" stop-color="rgba(0,0,0,0.15)"></stop></linearGradient></defs><g><ellipse cx="100" cy="228" rx="40" ry="4" fill="rgba(0,0,0,0.45)"></ellipse><rect x="68" y="182" width="14" height="38" rx="3" fill="#875706"></rect><rect x="118" y="182" width="14" height="38" rx="3" fill="#875706"></rect><rect x="69" y="184" width="3" height="32" rx="1.5" fill="#f8bb54" opacity="0.4"></rect><rect x="119" y="184" width="3" height="32" rx="1.5" fill="#f8bb54" opacity="0.4"></rect><g><ellipse cx="75" cy="224" rx="14" ry="5" fill="#0a0e17"></ellipse><ellipse cx="75" cy="223" rx="14" ry="3" fill="#1a2030"></ellipse><ellipse cx="72" cy="222" rx="6" ry="1.5" fill="rgba(255,255,255,0.25)"></ellipse><line x1="67" y1="221" x2="83" y2="221" stroke="#f59e0b" stroke-width="1.5"></line></g><g><ellipse cx="125" cy="224" rx="14" ry="5" fill="#0a0e17"></ellipse><ellipse cx="125" cy="223" rx="14" ry="3" fill="#1a2030"></ellipse><ellipse cx="122" cy="222" rx="6" ry="1.5" fill="rgba(255,255,255,0.25)"></ellipse><line x1="117" y1="221" x2="133" y2="221" stroke="#f59e0b" stroke-width="1.5"></line></g><ellipse cx="76" cy="52" rx="9" ry="12" fill="none" stroke="#875706" stroke-width="6" stroke-linecap="round"></ellipse><ellipse cx="124" cy="52" rx="9" ry="12" fill="none" stroke="#875706" stroke-width="6" stroke-linecap="round"></ellipse><ellipse cx="74" cy="50" rx="10" ry="13" fill="none" stroke="#f8bb54" stroke-width="1.5" stroke-linecap="round" opacity="0.5" stroke-dasharray="3 30"></ellipse><ellipse cx="122" cy="50" rx="10" ry="13" fill="none" stroke="#f8bb54" stroke-width="1.5" stroke-linecap="round" opacity="0.5" stroke-dasharray="3 30"></ellipse><path d="M 56 62 Q 56 47 72 47 L 128 47 Q 144 47 144 62 L 144 182 Q 144 196 130 196 L 70 196 Q 56 196 56 182 Z" fill="url(#bodyG-r1)"></path><path d="M 144 67 L 144 177" stroke="rgba(255,255,255,0.18)" stroke-width="1.5"></path><line x1="68" y1="102" x2="68" y2="182" stroke="#875706" stroke-width="2" opacity="0.45"></line><line x1="132" y1="102" x2="132" y2="182" stroke="#875706" stroke-width="2" opacity="0.45"></line><path d="M 56 62 Q 56 47 72 47 L 128 47 Q 144 47 144 62 L 144 92 Q 144 100 134 100 L 66 100 Q 56 100 56 92 Z" fill="url(#flapG-r1)"></path><ellipse cx="82" cy="57" rx="22" ry="6" fill="rgba(255,255,255,0.25)"></ellipse><g><rect x="92" y="84" width="16" height="10" rx="2" fill="#875706"></rect><rect x="92" y="84" width="16" height="3" rx="1" fill="rgba(255,255,255,0.3)"></rect><rect x="95" y="87" width="10" height="4" rx="1" fill="#f6a61f" opacity="0.5"></rect></g><rect x="74" y="120" width="52" height="32" rx="6" fill="url(#pockG-r1)" opacity="0.7"></rect><line x1="80" y1="126" x2="120" y2="126" stroke="#875706" stroke-width="1.5" opacity="0.5"></line><circle cx="120" cy="126" r="2" fill="#f59e0b"></circle><g><circle cx="83" cy="116" r="6.5" fill="#0a0e17"></circle><circle cx="117" cy="116" r="6.5" fill="#0a0e17"></circle><circle cx="85" cy="114" r="2" fill="#fff"></circle><circle cx="119" cy="114" r="2" fill="#fff"></circle><circle cx="100" cy="134" r="2.5" fill="#0a0e17"></circle></g><g><path d="M 56 125 Q 75 113.5 78 102" stroke="#875706" stroke-width="10" fill="none" stroke-linecap="round"></path><path d="M 56 125 Q 75 113.5 78 102" stroke="#f59e0b" stroke-width="7" fill="none" stroke-linecap="round"></path><path d="M 56 125 Q 75 113.5 78 102" stroke="#f8bb54" stroke-width="2" fill="none" stroke-linecap="round" opacity="0.5"></path></g><g><path d="M 144 125 Q 125 113.5 122 102" stroke="#875706" stroke-width="10" fill="none" stroke-linecap="round"></path><path d="M 144 125 Q 125 113.5 122 102" stroke="#f59e0b" stroke-width="7" fill="none" stroke-linecap="round"></path><path d="M 144 125 Q 125 113.5 122 102" stroke="#f8bb54" stroke-width="2" fill="none" stroke-linecap="round" opacity="0.5"></path></g><g><rect x="74" y="104" width="52" height="16" rx="3" fill="#1a1f2a"></rect><rect x="74" y="104" width="52" height="4" rx="2" fill="rgba(255,255,255,0.15)"></rect><circle cx="83" cy="112" r="10" fill="#1a1f2a" stroke="#f59e0b" stroke-width="2"></circle><circle cx="117" cy="112" r="10" fill="#1a1f2a" stroke="#f59e0b" stroke-width="2"></circle><circle cx="83" cy="112" r="5" fill="#f59e0b" opacity="0.7"></circle><circle cx="117" cy="112" r="5" fill="#f59e0b" opacity="0.7"></circle><circle cx="80" cy="109" r="2" fill="rgba(255,255,255,0.6)"></circle><circle cx="114" cy="109" r="2" fill="rgba(255,255,255,0.6)"></circle></g></g></svg>