<svg xmlns="http://www.w3.org/2000/svg" viewBox="0 0 200 260"><defs><linearGradient id="body-ra" x1="0" y1="0" x2="1" y2="1"><stop offset="0" stop-color="#f47c7c"></stop><stop offset="0.45" stop-color="#ef4444"></stop><stop offset="1" stop-color="#832525"></stop></linearGradient><linearGradient id="flap-ra" x1="0" y1="0" x2="0" y2="1"><stop offset="0" stop-color="#f69090"></stop><stop offset="1" stop-color="#f05353"></stop></linearGradient><linearGradient id="pock-ra" x1="0" y1="0" x2="0" y2="1"><stop offset="0" stop-color="rgba(0,0,0,0.5)"></stop><stop offset="1" stop-color="rgba(0,0,0,0.18)"></stop></linearGradient></defs><g><rect x="92" y="44" width="16" height="6" rx="1.5" fill="#1a2030"></rect><line x1="100" y1="44" x2="100" y2="6" stroke="#06090f" stroke-width="4.5" stroke-linecap="round"></line><line x1="100" y1="44" x2="100" y2="6" stroke="#cbd5e1" stroke-width="2.8" stroke-linecap="round"></line><line x1="98.5" y1="44" x2="98.5" y2="6" stroke="rgba(255,255,255,0.7)" stroke-width="0.7" stroke-linecap="round"></line><circle cx="100" cy="6" r="2.6" fill="#06090f"></circle><circle cx="100" cy="6" r="1.8" fill="#fbbf24"></circle><g><path d="M 100 12 L 130 14 L 130 30 L 100 28 Z" fill="#fbbf24" stroke="#06090f" stroke-width="1"></path><path d="M 100 14 L 100 26" stroke="rgba(0,0,0,0.25)" stroke-width="2"></path><path d="M 106 26 l 5 -7 l 4 4 l 4 -6 l 6 8" stroke="#dc2626" stroke-width="1.4" fill="none" stroke-linecap="round" stroke-linejoin="round"></path></g></g><g><ellipse cx="100" cy="228" rx="46" ry="4" fill="rgba(0,0,0,0.45)"></ellipse><rect x="68" y="182" width="14" height="38" rx="3" fill="#832525"></rect><rect x="118" y="182" width="14" height="38" rx="3" fill="#832525"></rect><rect x="69" y="184" width="3" height="32" rx="1.5" fill="#f47c7c" opacity="0.4"></rect><rect x="119" y="184" width="3" height="32" rx="1.5" fill="#f47c7c" opacity="0.4"></rect><g><ellipse cx="75" cy="224" rx="14" ry="5" fill="#0a0e17"></ellipse><ellipse cx="75" cy="223" rx="14" ry="3" fill="#1a2030"></ellipse><ellipse cx="72" cy="222" rx="6" ry="1.5" fill="rgba(255,255,255,0.25)"></ellipse><line x1="67" y1="221" x2="83" y2="221" stroke="#ef4444" stroke-width="1.5"></line></g><g><ellipse cx="125" cy="224" rx="14" ry="5" fill="#0a0e17"></ellipse><ellipse cx="125" cy="223" rx="14" ry="3" fill="#1a2030"></ellipse><ellipse cx="122" cy="222" rx="6" ry="1.5" fill="rgba(255,255,255,0.25)"></ellipse><line x1="117" y1="221" x2="133" y2="221" stroke="#ef4444" stroke-width="1.5"></line></g><ellipse cx="76" cy="52" rx="9" ry="12" fill="none" stroke="#832525" stroke-width="6" stroke-linecap="round"></ellipse><ellipse cx="124" cy="52" rx="9" ry="12" fill="none" stroke="#832525" stroke-width="6" stroke-linecap="round"></ellipse><ellipse cx="74" cy="50" rx="10" ry="13" fill="none" stroke="#f47c7c" stroke-width="1.5" stroke-linecap="round" opacity="0.5" stroke-dasharray="3 30"></ellipse><ellipse cx="122" cy="50" rx="10" ry="13" fill="none" stroke="#f47c7c" stroke-width="1.5" stroke-linecap="round" opacity="0.5" stroke-dasharray="3 30"></ellipse><path d="M 56 62 Q 56 47 72 47 L 128 47 Q 144 47 144 62 L 144 182 Q 144 196 130 196 L 70 196 Q 56 196 56 182 Z" fill="url(#body-ra)"></path><path d="M 144 67 L 144 177" stroke="rgba(255,255,255,0.18)" stroke-width="1.5"></path><line x1="68" y1="102" x2="68" y2="182" stroke="#832525" stroke-width="2" opacity="0.45"></line><line x1="132" y1="102" x2="132" y2="182" stroke="#832525" stroke-width="2" opacity="0.45"></line><path d="M 56 62 Q 56 47 72 47 L 128 47 Q 144 47 144 62 L 144 92 Q 144 100 134 100 L 66 100 Q 56 100 56 92 Z" fill="url(#flap-ra)"></path><ellipse cx="82" cy="57" rx="22" ry="6" fill="rgba(255,255,255,0.25)"></ellipse></g><g><rect x="92" y="84" width="16" height="10" rx="2" fill="#832525"></rect><rect x="92" y="84" width="16" height="3" rx="1" fill="rgba(255,255,255,0.3)"></rect><rect x="95" y="87" width="10" height="4" rx="1" fill="#f05353" opacity="0.5"></rect></g><rect x="74" y="120" width="52" height="32" rx="6" fill="url(#pock-ra)" opacity="0.7"></rect><line x1="80" y1="126" x2="120" y2="126" stroke="#832525" stroke-width="1.5" opacity="0.5"></line><circle cx="120" cy="126" r="2" fill="#fbbf24"></circle><g><circle cx="83" cy="116" r="6.5" fill="#06090f"></circle><circle cx="117" cy="116" r="6.5" fill="#06090f"></circle><circle cx="85" cy="114" r="2" fill="#fff"></circle><circle cx="119" cy="114" r="2" fill="#fff"></circle></g><path d="M 92 133 Q 100 138 108 133" stroke="#06090f" stroke-width="2.4" fill="none" stroke-linecap="round"></path><g><g><path d="M 56 130 Q 42 140 44 150" stroke="#832525" stroke-width="10" fill="none" stroke-linecap="round"></path><path d="M 56 130 Q 42 140 44 150" stroke="#ef4444" stroke-width="7" fill="none" stroke-linecap="round"></path><path d="M 56 130 Q 42 140 44 150" stroke="#f47c7c" stroke-width="2" fill="none" stroke-linecap="round" opacity="0.5"></path></g><g transform="translate(34, 156)"><rect x="-15" y="-12" width="32" height="24" rx="1.2" fill="rgba(0,0,0,0.45)" transform="translate(1.5, 2)"></rect><path d="M -16 -12 L 16 -13 L 17 11 L -15 12 Z" fill="#f1e7cd" stroke="#0a0e17" stroke-width="0.9" stroke-linejoin="round"></path><line x1="0.5" y1="-12.5" x2="1" y2="11.5" stroke="#c8b88a" stroke-width="0.5" opacity="0.7"></line><line x1="-14" y1="-6" x2="15" y2="-6.5" stroke="#c8b88a" stroke-width="0.4" opacity="0.55"></line><line x1="-14" y1="0" x2="15" y2="-0.5" stroke="#c8b88a" stroke-width="0.4" opacity="0.55"></line><line x1="-14" y1="6" x2="15" y2="5.5" stroke="#c8b88a" stroke-width="0.4" opacity="0.55"></line><polyline points="-13,5 -8,-2 -3,3 2,-5 7,-1 12,-7 15,-9" fill="none" stroke="#ef4444" stroke-width="1.6" stroke-linecap="round" stroke-linejoin="round"></polyline><circle cx="15" cy="-9" r="1.6" fill="#ef4444" stroke="#0a0e17" stroke-width="0.4"></circle><circle cx="2" cy="-5" r="1" fill="#0a0e17" opacity="0.6"></circle></g><g><path d="M 144 130 Q 166 128 172 126" stroke="#832525" stroke-width="10" fill="none" stroke-linecap="round"></path><path d="M 144 130 Q 166 128 172 126" stroke="#ef4444" stroke-width="7" fill="none" stroke-linecap="round"></path><path d="M 144 130 Q 166 128 172 126" stroke="#f47c7c" stroke-width="2" fill="none" stroke-linecap="round" opacity="0.5"></path></g><circle cx="172" cy="126" r="6" fill="#832525"></circle><circle cx="170.5" cy="124.5" r="1.8" fill="rgba(255,255,255,0.3)"></circle><line x1="172" y1="126" x2="186" y2="123" stroke="#832525" stroke-width="3.5" stroke-linecap="round"></line><line x1="172" y1="126" x2="186" y2="123" stroke="#ef4444" stroke-width="2" stroke-linecap="round"></line></g></svg>